# xmcd
#
# Track frame offsets: 
#        150
#        5375
#        22829
#        45855
#        59373
#        81407
#
# Disc length: 1356 seconds
#
# Revision: 0
# Processed by: cddbd v1.5.2PL0 Copyright (c) Steve Scherf et al.
# Submitted via: ExactAudioCopyFreeDBPlugin 1.0
#
DISCID=38054a06
DTITLE=Totality - Abaddon
DYEAR=2011
DGENRE=Death Metal
TTITLE0=Intro
TTITLE1=Abaddon
TTITLE2=Confines of Man
TTITLE3=Merciless
TTITLE4=Deception
TTITLE5=Book of Law
EXTD=
EXTT0=
EXTT1=
EXTT2=
EXTT3=
EXTT4=
EXTT5=
PLAYORDER=
